<svg xmlns="http://www.w3.org/2000/svg" viewBox="0 0 64 64" role="img" aria-label="Admaxxer">
  <title>Admaxxer</title>
  <defs>
    <linearGradient id="bg" x1="0" y1="0" x2="1" y2="1">
      <stop offset="0%" stop-color="#7c3aed"/>
      <stop offset="100%" stop-color="#10b981"/>
    </linearGradient>
    <radialGradient id="topGlow" cx="0.25" cy="0.15" r="0.95">
      <stop offset="0%" stop-color="#ffffff" stop-opacity="0.3"/>
      <stop offset="70%" stop-color="#ffffff" stop-opacity="0"/>
    </radialGradient>
    <radialGradient id="cornerTint" cx="0.95" cy="0.95" r="0.9">
      <stop offset="0%" stop-color="#10b981" stop-opacity="0.4"/>
      <stop offset="60%" stop-color="#10b981" stop-opacity="0"/>
    </radialGradient>
    <radialGradient id="headGlow" cx="0.5" cy="0.5" r="0.5">
      <stop offset="0%" stop-color="#ffffff" stop-opacity="1"/>
      <stop offset="45%" stop-color="#ffffff" stop-opacity="0.55"/>
      <stop offset="100%" stop-color="#ffffff" stop-opacity="0"/>
    </radialGradient>
    <radialGradient id="nodeGlow" cx="0.5" cy="0.5" r="0.5">
      <stop offset="0%" stop-color="#ffffff" stop-opacity="0.8"/>
      <stop offset="100%" stop-color="#ffffff" stop-opacity="0"/>
    </radialGradient>
  </defs>

  <rect width="64" height="64" rx="13" fill="url(#bg)"/>
  <rect width="64" height="64" rx="13" fill="url(#cornerTint)"/>
  <rect width="64" height="64" rx="13" fill="url(#topGlow)"/>

  <g stroke="#ffffff" stroke-linecap="round">
    <line x1="8" y1="48" x2="58" y2="48" stroke-opacity="0.14" stroke-width="0.7" stroke-dasharray="1.5 2.5"/>
    <line x1="8" y1="34" x2="58" y2="34" stroke-opacity="0.12" stroke-width="0.7" stroke-dasharray="1.5 2.5"/>
    <line x1="8" y1="20" x2="58" y2="20" stroke-opacity="0.1" stroke-width="0.7" stroke-dasharray="1.5 2.5"/>
  </g>

  <path d="M 8 48 C 14 44 18 50 24 44 C 28 40 30 48 34 38 C 38 30 42 32 46 22 C 50 14 54 18 58 10"
        fill="none" stroke="#ffffff" stroke-opacity="1" stroke-width="2.8"
        stroke-linecap="round" stroke-linejoin="round"/>

  <circle cx="14" cy="44.5" r="5" fill="url(#nodeGlow)" opacity="0.65"/>
  <circle cx="14" cy="44.5" r="1.8" fill="#ffffff"/>

  <circle cx="28" cy="42" r="5" fill="url(#nodeGlow)" opacity="0.6"/>
  <circle cx="28" cy="42" r="1.6" fill="#ffffff"/>

  <circle cx="42" cy="27" r="5" fill="url(#nodeGlow)" opacity="0.7"/>
  <circle cx="42" cy="27" r="1.8" fill="#ffffff"/>

  <circle cx="58" cy="10" r="8" fill="url(#headGlow)" opacity="0.95"/>
  <circle cx="58" cy="10" r="2.6" fill="#ffffff"/>

  <circle cx="14" cy="14" r="0.7" fill="#ffffff" opacity="0.6"/>
  <circle cx="48" cy="54" r="0.6" fill="#ffffff" opacity="0.5"/>
</svg>
